<?xml version="1.0" encoding="UTF-8"?>
<svg width="120px" height="120px" viewBox="0 0 120 120" version="1.1" xmlns="http://www.w3.org/2000/svg" xmlns:xlink="http://www.w3.org/1999/xlink">
    <!-- Generator: Sketch 51.3 (57544) - http://www.bohemiancoding.com/sketch -->
    <title>Twitter</title>
    <desc>Created with Sketch.</desc>
    <defs></defs>
    <g id="Page-1" stroke="none" stroke-width="1" fill="none" fill-rule="evenodd">
        <g id="Icons" transform="translate(-1722.000000, -658.000000)">
            <g id="Social-Apps" transform="translate(1418.000000, 50.000000)">
                <g id="Twitter" transform="translate(304.000000, 608.000000)">
                    <path d="M91.40625,2.04546525e-15 C108.75,2.04546525e-15 120,11.25 120,28.59375 L120,91.40625 C120,108.75 108.75,120 91.40625,120 L28.59375,120 C11.25,120 0,108.75 0,91.40625 L0,28.59375 C0,11.25 11.25,2.04546526e-15 28.59375,2.04546526e-15 L91.40625,2.04546525e-15 Z" id="App-Icon-Shape" fill="#1DA1F2"></path>
                    <path d="M26.677,30.8214653 C26.677,30.8214653 40.294,47.7474653 61.038,48.7654653 C61.038,48.7654653 56.804,37.5394653 69.461,29.8444653 C69.461,29.8444653 79.744,23.8044653 89.668,33.5844653 C89.668,33.5844653 94.144,33.3674653 99.539,29.4004653 C99.539,29.4004653 100.333,33.0504653 93.298,38.9214653 C93.298,38.9214653 97.212,38.6044653 101.655,35.6944653 C101.655,35.6944653 100.809,40.7194653 93.562,44.3694653 C93.562,44.3694653 95.767,84.1274653 56.968,92.8294653 C56.968,92.8294653 36.45,97.4594653 22,86.1234653 C22,86.1234653 37.328,87.7194653 45.471,79.1774653 C45.471,79.1774653 35.253,80.1354653 30.223,68.0804653 C30.223,68.0804653 35.332,68.9584653 37.408,67.2824653 C37.408,67.2824653 26.63,67.3614653 24.235,51.2354653 C24.235,51.2354653 28.626,53.4704653 31.5,53.0714653 C31.5,53.0714653 19.299,45.5354653 26.677,30.8214653" id="Icon" fill="#FFFFFF"></path>
                </g>
            </g>
        </g>
    </g>
</svg>